PathFileType	4	(X/Y/Z)	/Users/niels/Desktop/University/Third Semester/Perception and Action/Exam/Gymnastics Motion Tracking/Code for Gym Tracking/Analyzed Data/Webcam_Backflip/id5_8_trajectory_Sports2D/id5_8_trajectory_Sports2D_px_person00.trc
DataRate	CameraRate	NumFrames	NumMarkers	Units	OrigDataRate	OrigDataStartFrame	OrigNumFrames
29.77777777777778	29.77777777777778	11	22	m	29.77777777777778	67	135
Frame#	Time	Hip			RHip			RKnee			RAnkle			RBigToe			RSmallToe			RHeel			LHip			LKnee			LAnkle			LBigToe			LSmallToe			LHeel			Neck			Head			Nose			RShoulder			RElbow			RWrist			LShoulder			LElbow			LWrist		
		X1	Y1	Z1	X2	Y2	Z2	X3	Y3	Z3	X4	Y4	Z4	X5	Y5	Z5	X6	Y6	Z6	X7	Y7	Z7	X8	Y8	Z8	X9	Y9	Z9	X10	Y10	Z10	X11	Y11	Z11	X12	Y12	Z12	X13	Y13	Z13	X14	Y14	Z14	X15	Y15	Z15	X16	Y16	Z16	X17	Y17	Z17	X18	Y18	Z18	X19	Y19	Z19	X20	Y20	Z20	X21	Y21	Z21	X22	Y22	Z22
67	2.25	1.3129353999339728	-1.079943075106387	0.0	1.0961367187499993	-0.9895751953125	0.0	0.2730135051467379	-0.993138835400202	0.0			0.0	0.5316496582022828	-0.6760112304689945	0.0	0.9282698139866589	-0.6611222716259135	0.0			0.0	1.4327872583143382	-0.9771617956335894	0.0	1.8199200880104802	-0.943618270569306	0.0			0.0	0.8820670674513358	-0.5317694888052554	0.0	0.6932652321179288	-0.6500319048545222	0.0	1.375857421875	-0.5512734375000002	0.0	0.6048314264933796	-0.9031590103223716	0.0	0.6248410449220988	-0.4893480615141223	0.0	0.6285606920023873	-0.7231414832045083	0.0	0.3197733170059581	-0.9704991539505112	0.0	0.2679484364222077	-1.0583304377582565	0.0	0.8942204864650253	-0.9208572590297751	0.0	0.855847890356181	-0.9742606983156934	0.0	0.9832608019202178	-1.0467319593281224	0.0	1.0126894005092517	-0.8730531019484546	0.0
68	2.283582089552239	1.312567427367226	-1.080286374751666	0.0	1.0961367187499993	-0.9895751953125	0.0	0.2765870495249097	-0.9922794132544394	0.0			0.0	0.5316496582021247	-0.6760112304690403	0.0	0.9359887751027579	-0.6578259462372296	0.0			0.0	1.4342783441633167	-0.9773665777318766	0.0	1.8199361547100792	-0.9436483275769013	0.0			0.0	0.8820670044847023	-0.531769451267568	0.0	0.6929682692815579	-0.6489195622738755	0.0	1.375857421875	-0.5512734375000002	0.0	0.5687931366472198	-0.9048126199479553	0.0	0.5985433479980387	-0.4900834309402613	0.0	0.6024439137685422	-0.7296103475588007	0.0	0.2781115180140391	-0.9672174433581291	0.0	0.23805415098971358	-1.059191992501449	0.0	0.8749314821008055	-0.940756432591865	0.0	0.8110516715334637	-0.9794387310642922	0.0	0.908379040790863	-1.064270772897963	0.0	0.9328014158388072	-0.9256077180914911	0.0
69	2.3171641791044775	1.312530400445155	-1.0803260507112478	0.0	1.0961367187499993	-0.9895751953125	0.0	0.2783800504379696	-0.991852353572824	0.0			0.0	0.5316496582023955	-0.6760112304689617	0.0	0.9402671712041859	-0.6559988887511424	0.0			0.0	1.4362073937099116	-0.9776315086975366	0.0	1.819949210387835	-0.9436699885639509	0.0			0.0	0.8820669396591212	-0.5317694126128244	0.0	0.6927932519446485	-0.6479361772156402	0.0	1.375857421875	-0.5512734375000002	0.0	0.5539721637110654	-0.9050397379969001	0.0	0.588069479732375	-0.4913601865895036	0.0	0.5922821986543395	-0.7327415455646045	0.0	0.26059627093913784	-0.9652371275008184	0.0	0.22566832514673366	-1.0601055836772424	0.0	0.8557742795202546	-0.9599233009933613	0.0	0.7924257073212392	-0.9808041935873112	0.0	0.857157867860124	-1.073005734443935	0.0	0.8696882863104145	-0.9672046252552807	0.0
70	2.3507462686567164	1.3126399790587673	-1.0802296849172721	0.0	1.0961367187499993	-0.9895751953125	0.0	0.2789629872060353	-0.9917225084182183	0.0			0.0	0.5316496582035284	-0.6760112304686328	0.0	0.9419708950458928	-0.6552713260558192	0.0			0.0	1.4377967371087461	-0.9778497852483704	0.0	1.8199575072472682	-0.9436823395906813	0.0			0.0	0.8820669127024866	-0.5317693965180929	0.0	0.6927468085912947	-0.6472489521678829	0.0	1.375857421875	-0.5512734375000002	0.0	0.5520839729808449	-0.9045323602195802	0.0	0.587407485586489	-0.49305160380389307	0.0	0.5917364780766163	-0.7341353407140955	0.0	0.2582295177760084	-0.9638118673883886	0.0	0.22425641127106538	-1.0607107451143716	0.0	0.8374083667586991	-0.9783339562854884	0.0	0.7897380974493416	-0.980049068514296	0.0	0.8232978780628265	-1.0756094929093678	0.0	0.8206837379523569	-1.0008869817790025	0.0
71	2.3843283582089554	1.312780510050225	-1.0801031623941248	0.0	1.0961367187499993	-0.9895751953125	0.0	0.2789012378825562	-0.9917552493190105	0.0			0.0	0.531649658206009	-0.6760112304679124	0.0	0.9421520894307182	-0.6551939483307597	0.0			0.0	1.4388170108898135	-0.9779899071641256	0.0	1.8199616131465843	-0.9436875149262599	0.0			0.0	0.8820669951020547	-0.5317694455944031	0.0	0.6927747415624194	-0.6468697002038566	0.0	1.375857421875	-0.5512734375000002	0.0	0.556317643042274	-0.90387627979855	0.0	0.5916347998031253	-0.4949146569669058	0.0	0.5957364446437275	-0.7349459010132662	0.0	0.26342741594063834	-0.9625462804609163	0.0	0.22831677611601642	-1.0609070765056412	0.0	0.8212187100155981	-0.9957981106851768	0.0	0.7945147408568112	-0.9785881972246123	0.0	0.8032639704376823	-1.0748621057965324	0.0	0.7857992453653581	-1.026910377475852	0.0
72	2.417910447761194	1.3128959000066474	-1.0799983295707902	0.0	1.0961367187499993	-0.9895751953125	0.0	0.2786024138535158	-0.9918512391272771	0.0			0.0	0.5316496582101331	-0.6760112304667151	0.0	0.941655891155172	-0.6554058461430304	0.0			0.0	1.4393270804338636	-0.9780599588728013	0.0	1.8199628982547669	-0.9436883305655102	0.0			0.0	0.8820672885547323	-0.5317696204677504	0.0	0.6928258402942784	-0.6467199102013906	0.0	1.375857421875	-0.5512734375000002	0.0	0.5622972001263948	-0.9034179644528371	0.0	0.5975300923729442	-0.4968567906599011	0.0	0.6011365092609411	-0.7358169613127843	0.0	0.2710543866588807	-0.9614263709011117	0.0	0.23420019773872458	-1.0607782898393343	0.0	0.8095746407948566	-1.0117805564689648	0.0	0.8013312178385088	-0.9773185400084488	0.0	0.7937362925322928	-1.0728616042044836	0.0	0.7658329302800859	-1.0442537879054716	0.0
73	2.451492537313433	1.3129697770591715	-1.079930736397443	0.0	1.0961367187499993	-0.9895751953125	0.0	0.27829130617946707	-0.9919494174543197	0.0			0.0	0.531649658215543	-0.6760112304651444	0.0	0.9410139488692069	-0.6556799828595483	0.0			0.0	1.439488909330332	-0.9780821840592351	0.0	1.8199626900935517	-0.9436871231646548	0.0			0.0	0.8820679014668964	-0.5317699857776643	0.0	0.6928727143733779	-0.6467052589659278	0.0	1.375857421875	-0.5512734375000002	0.0	0.5678108179723821	-0.9032383150301916	0.0	0.6033759257328495	-0.49888294744069095	0.0	0.6064509584174653	-0.7369340582220975	0.0	0.27821915939026504	-0.9605759177557621	0.0	0.23980176269532386	-1.0604535506668495	0.0	0.8056181259937345	-1.02541997050427	0.0	0.8074728182390332	-0.9767064299136459	0.0	0.7911541496411855	-1.0708233682682404	0.0	0.7601190178722841	-1.0533413902821178	0.0
74	2.485074626865672	1.313006583931376	-1.079896753875208	0.0	1.0961367187499993	-0.9895751953125	0.0	0.27804276490857455	-0.9920154559382234	0.0			0.0	0.5316496582205315	-0.6760112304636962	0.0	0.9404850527937109	-0.6559058440260201	0.0			0.0	1.439463319080819	-0.9780786695567035	0.0	1.8199619298266971	-0.943685400140499	0.0			0.0	0.8820688876403456	-0.5317705736357605	0.0	0.6929051968936911	-0.6467503464418524	0.0	1.375857421875	-0.5512734375000002	0.0	0.572152716036599	-0.9032019051654376	0.0	0.60857065745414	-0.5008419995491058	0.0	0.6112808895520555	-0.7381228133457153	0.0	0.283690175205611	-0.9601612243846112	0.0	0.24414257395966127	-1.060104624633969	0.0	0.81218222647332	-1.035837796676957	0.0	0.8119491882595288	-0.977039673910894	0.0	0.7929904114582657	-1.0693192635048372	0.0	0.7664468054687895	-1.0564641612169083	0.0
75	2.5186567164179103	1.3130181569033206	-1.079885815084844	0.0	1.0961367187499993	-0.9895751953125	0.0	0.27782996689822964	-0.992027470248794	0.0			0.0	0.5316496582212383	-0.676011230463491	0.0	0.940145529693081	-0.6560508348609029	0.0			0.0	1.43936726669749	-0.978065477956356	0.0	1.8199611259783715	-0.9436839196855376	0.0			0.0	0.8820701334321808	-0.5317713163664808	0.0	0.6929229740863209	-0.646807928601156	0.0	1.375857421875	-0.5512734375000002	0.0	0.5754800355471874	-0.9031155523189889	0.0	0.6132657307634356	-0.5024691578652982	0.0	0.6158006555405436	-0.7390272780503091	0.0	0.2873417095950711	-0.9604086210486331	0.0	0.24707379496218615	-1.0599093772006205	0.0	0.8299079464855953	-1.0426753801075257	0.0	0.8146882048060993	-0.9784160279398717	0.0	0.7986955468895673	-1.068449903612011	0.0	0.7818527130737879	-1.056508514813861	0.0
76	2.5522388059701493	1.3130161906489428	-1.0798873403002227	0.0	1.0961367187499993	-0.9895751953125	0.0	0.27757061491850255	-0.9919663030693692	0.0			0.0	0.5316496582111112	-0.6760112304664313	0.0	0.9399757905540906	-0.6561233207077535	0.0			0.0	1.4392680443920172	-0.9780518510066231	0.0	1.819960443674281	-0.9436829277887253	0.0			0.0	0.8820711938503829	-0.5317719487977431	0.0	0.6929298842345911	-0.6468551317044183	0.0	1.375857421875	-0.5512734375000002	0.0	0.5783209384063113	-0.9028807698007166	0.0	0.6180217448967026	-0.5036377574538933	0.0	0.6204256329239095	-0.7392792616896465	0.0	0.28969448282420096	-0.9614537495017661	0.0	0.24892239175391084	-1.0599081303636173	0.0	0.8558067643932998	-1.0464074490636415	0.0	0.81609052225501	-0.9805454848658133	0.0	0.8096600556488031	-1.0678894037992692	0.0	0.8029050628285983	-1.0556857890852147	0.0
77	2.5858208955223883	1.3130091659172125	-1.079893599141806	0.0	1.0961367187499993	-0.9895751953125	0.0	0.27717172474555785	-0.9918150945349593	0.0			0.0	0.5316496581813586	-0.6760112304750696	0.0	0.9399219377062376	-0.6561463181690649	0.0			0.0	1.4391942858087838	-0.978041721182474	0.0	1.8199598318506043	-0.9436823976429088	0.0			0.0	0.8820711120810641	-0.5317719006532634	0.0	0.6929304439458064	-0.6468853139237244	0.0	1.375857421875	-0.5512734375000002	0.0	0.5812653185373697	-0.9025043762649906	0.0	0.6235017767649762	-0.5044190784114533	0.0	0.6255992413552226	-0.7386033004682482	0.0	0.2914837809962824	-0.9631650478286711	0.0	0.2501076546427312	-1.0600022645327996	0.0	0.8833364740578934	-1.048094565412988	0.0	0.816756891399718	-0.9828870046796206	0.0	0.827830724985843	-1.0671705812118162	0.0	0.8256842899575834	-1.0551325011421178	0.0
